<svg xmlns="http://www.w3.org/2000/svg" xmlns:xlink="http://www.w3.org/1999/xlink" width="301" height="354" viewBox="0 0 301 354">
    <defs>
        <path id="a" d="M177.969 11.645c0 6.264-39.803 11.342-88.904 11.342-49.1 0-88.904-5.078-88.904-11.342C.161 5.382 39.965.303 89.065.303l88.904 11.342z"/>
    </defs>
    <g fill="none" fill-rule="evenodd">
        <path fill="#002954" d="M226.42 225.057l50.113-18.112.806 3.523-47.903 23.389z"/>
        <path fill="#CAFCD8" d="M36.536 302.476h199.073V206.77H36.536z"/>
        <path fill="#A77250" d="M61.32 330.26c-3.71 0-6.738-3.026-6.738-6.737 0-3.71 3.028-6.738 6.739-6.738 3.71 0 6.737 3.027 6.737 6.738 0 3.711-3.026 6.737-6.737 6.737z"/>
        <path fill="#9B9B9B" d="M59.904 347.802h2.832v-48.557h-2.832z"/>
        <path fill="#9B9B9B" d="M37.043 324.937h48.555v-2.829H37.043z"/>
        <path fill="#9B9B9B" d="M77.486 305.354l2.001 2.002-34.334 34.335-2.002-2.002z"/>
        <path fill="#9B9B9B" d="M43.153 307.356l2-2.002 34.334 34.335-2 2.002z"/>
        <path fill="#9B9B9B" d="M61.32 300.308c12.82 0 23.215 10.396 23.215 23.215 0 12.82-10.394 23.214-23.214 23.214-12.822 0-23.215-10.393-23.215-23.214 0-12.82 10.393-23.215 23.215-23.215m30.178 23.215c0-16.666-13.512-30.18-30.178-30.18-16.67 0-30.18 13.514-30.18 30.18 0 16.668 13.51 30.18 30.18 30.18 16.666 0 30.178-13.512 30.178-30.18"/>
        <path fill="#002954" d="M36.536 213.206h199.073v-6.437H36.536z"/>
        <path fill="#4A4A4A" d="M33.299 88.58l6.412-.49 12.074 116.105-6.413.49zM235.998 88.58l-6.412-.49-12.072 116.105 6.412.49z"/>
        <path fill="#CAFCD8" d="M42.07 99.608h20.848v8.043c0 4.425-3.62 8.043-8.043 8.043h-4.762c-4.424 0-8.043-3.618-8.043-8.043v-8.043zM125.595 99.608h20.848v8.043c0 4.425-3.62 8.043-8.043 8.043h-4.763c-4.423 0-8.042-3.618-8.042-8.043v-8.043zM209.064 99.608h20.848v8.043c0 4.425-3.621 8.043-8.043 8.043h-4.762c-4.422 0-8.043-3.618-8.043-8.043v-8.043zM83.819 99.608h20.847v8.043c0 4.425-3.619 8.043-8.042 8.043h-4.763c-4.423 0-8.042-3.618-8.042-8.043v-8.043zM167.343 99.608h20.849v8.043c0 4.425-3.621 8.043-8.043 8.043h-4.762c-4.425 0-8.044-3.618-8.044-8.043v-8.043zM250.813 99.608h20.848v8.043c0 4.425-3.621 8.043-8.043 8.043h-4.762c-4.425 0-8.043-3.618-8.043-8.043v-8.043z"/>
        <path fill="#002954" d="M21.195 99.608H42.07v8.043c0 4.425-3.619 8.043-8.042 8.043h-4.79c-4.423 0-8.043-3.618-8.043-8.043v-8.043zM104.72 99.608h20.875v8.043c0 4.425-3.619 8.043-8.042 8.043h-4.79c-4.424 0-8.043-3.618-8.043-8.043v-8.043zM188.191 99.608h20.873v8.043c0 4.425-3.617 8.043-8.041 8.043h-4.788c-4.428 0-8.044-3.618-8.044-8.043v-8.043zM62.944 99.608H83.82v8.043c0 4.425-3.62 8.043-8.042 8.043h-4.79c-4.424 0-8.044-3.618-8.044-8.043v-8.043zM146.469 99.608h20.874v8.043c0 4.425-3.621 8.043-8.043 8.043h-4.79c-4.422 0-8.041-3.618-8.041-8.043v-8.043zM229.938 99.608h20.875v8.043c0 4.425-3.62 8.043-8.043 8.043h-4.79c-4.423 0-8.042-3.618-8.042-8.043v-8.043zM214.077 0c12.067 0 21.94 9.873 21.94 21.94v21.942H38.99v-21.94C38.99 9.873 48.862 0 60.93 0h153.147z"/>
        <path fill="#8FD1C4" d="M44.12 43.882h186.767v-21.71c0-9.65-9.771-17.56-21.695-17.56H65.814c-11.922 0-21.694 7.91-21.694 17.56v21.71z"/>
        <path fill="#002954" d="M269.495 201.896H295.6a4.448 4.448 0 0 1 4.437 4.437 4.449 4.449 0 0 1-4.437 4.436h-26.104a4.45 4.45 0 0 1-4.437-4.436 4.45 4.45 0 0 1 4.437-4.437M29.607 195.196H242.54a4.218 4.218 0 0 1 4.205 4.206v3.507a4.219 4.219 0 0 1-4.205 4.206H29.607a4.22 4.22 0 0 1-4.207-4.206v-3.507a4.219 4.219 0 0 1 4.207-4.206"/>
        <path fill="#414141" d="M60.451 307.696h142.613v-5.22H60.451z"/>
        <path fill="#A77250" d="M203.064 314.001c6.3 0 11.437-5.136 11.437-11.434 0-6.297-5.136-11.435-11.437-11.435-6.296 0-11.434 5.138-11.434 11.435 0 6.298 5.138 11.434 11.434 11.434"/>
        <path fill="#9B9B9B" d="M200.661 343.766h4.806v-82.398h-4.806z"/>
        <path fill="#9B9B9B" d="M161.863 304.968h82.401v-4.803h-82.401z"/>
        <path fill="#9B9B9B" d="M230.498 271.736l3.394 3.395-58.263 58.267-3.398-3.397z"/>
        <path fill="#9B9B9B" d="M172.232 275.13l3.397-3.395L233.897 330l-3.398 3.398z"/>
        <path fill="#9B9B9B" d="M203.064 263.173c21.756 0 39.395 17.637 39.395 39.395 0 21.755-17.64 39.394-39.395 39.394-21.758 0-39.395-17.639-39.395-39.394 0-21.758 17.637-39.395 39.395-39.395m51.215 39.395c0-28.287-22.931-51.214-51.215-51.214-28.284 0-51.214 22.927-51.214 51.214 0 28.284 22.93 51.214 51.214 51.214s51.215-22.93 51.215-51.214"/>
        <path fill="#AFDFDF" d="M136.611 275.937l14.744-28.248h-29.488z"/>
        <path fill="#FFF8E7" d="M92.672 270.677l21.218-23.772-28.59-7.225z"/>
        <path fill="#4A4A4A" d="M50.79 253.77l26.835-17.18-25.587-14.66z"/>
        <path fill="#AFDFDF" d="M179.979 270.605l-21.052-23.921 28.64-7.026z"/>
        <path fill="#FFF8E7" d="M221.591 253.405l-26.714-17.37 25.691-14.478z"/>
        <path fill="#4B3621" d="M40.337 211.153c4.632 5.062 9.96 9.729 15.885 13.929 21.642 15.336 51.222 24.413 83.608 23.59 32.387-.821 61.467-11.385 82.305-27.8a103.042 103.042 0 0 0 9.931-8.904l-.058-2.361a100.637 100.637 0 0 1-10.909 9.945c-20.567 16.204-49.295 26.629-81.31 27.44-32.017.813-61.238-8.145-82.599-23.281-6.39-4.527-12.076-9.612-16.92-15.148l.067 2.59z"/>
        <path fill="#4B3621" d="M231.892 207.27a3.715 3.715 0 0 0 0 7.429 3.716 3.716 0 0 0 0-7.429M40.252 207.27a3.714 3.714 0 1 0 0 7.429 3.715 3.715 0 1 0 0-7.43"/>
        <path fill="#CAFCD8" d="M38.989 43.882h15.13c-4.172 7.072-8.77 14.855-13.847 23.45-5.65 9.562-11.971 20.258-19.076 32.276H.349c8.339-12.018 15.753-22.714 22.388-32.28 5.954-8.59 11.355-16.374 16.252-23.446M220.824 43.882h15.193c4.541 7.077 9.538 14.86 15.052 23.45l20.727 32.276h-20.928c-6.487-12.026-12.249-22.714-17.404-32.276-4.628-8.59-8.825-16.373-12.64-23.45"/>
        <path fill="#002954" d="M54.12 43.882h15.153A87472.858 87472.858 0 0 1 42.07 99.608H21.196C28.3 87.59 34.622 76.894 40.272 67.332c5.077-8.595 9.675-16.378 13.848-23.45"/>
        <path fill="#CAFCD8" d="M69.273 43.882h15.151a36261.17 36261.17 0 0 1-9.035 23.45c-3.686 9.562-7.81 20.258-12.445 32.276H42.07a87472.858 87472.858 0 0 0 27.203-55.726"/>
        <path fill="#002954" d="M84.424 43.882h15.15c-1.993 7.072-4.195 14.855-6.624 23.45-2.706 9.562-5.733 20.258-9.13 32.276H62.945c4.634-12.018 8.759-22.714 12.443-32.276 3.314-8.595 6.314-16.378 9.036-23.45"/>
        <path fill="#CAFCD8" d="M99.575 43.882h15.17c-1.267 7.072-2.67 14.855-4.214 23.45-1.723 9.562-3.648 20.258-5.81 32.276H83.819l9.13-32.276c2.43-8.595 4.63-16.378 6.626-23.45"/>
        <path fill="#002954" d="M114.746 43.882h15.151c-.542 7.072-1.143 14.855-1.808 23.45-.74 9.562-1.567 20.258-2.494 32.276H104.72c2.162-12.018 4.088-22.714 5.81-32.276 1.546-8.595 2.948-16.378 4.216-23.45"/>
        <path fill="#CAFCD8" d="M129.898 43.882h15.15c.185 7.072.384 14.855.6 23.45.24 9.562.514 20.25.82 32.276h-20.873c.928-12.018 1.755-22.714 2.495-32.276.665-8.595 1.266-16.378 1.808-23.45"/>
        <path fill="#002954" d="M145.049 43.882h15.149c.911 7.077 1.908 14.855 3.01 23.45 1.223 9.562 2.592 20.25 4.135 32.276h-20.874c-.308-12.026-.58-22.714-.821-32.276-.216-8.595-.415-16.378-.599-23.45"/>
        <path fill="#CAFCD8" d="M160.198 43.882h15.174c1.636 7.077 3.431 14.855 5.417 23.45 2.206 9.562 4.674 20.25 7.455 32.276h-20.9a66570.082 66570.082 0 0 1-4.136-32.276c-1.103-8.595-2.1-16.373-3.01-23.45"/>
        <path fill="#002954" d="M175.372 43.882h15.151c2.362 7.077 4.958 14.855 7.825 23.45 3.186 9.562 6.754 20.25 10.771 32.276h-20.875a63702.57 63702.57 0 0 1-7.455-32.276c-1.985-8.595-3.78-16.373-5.417-23.45"/>
        <path fill="#CAFCD8" d="M190.524 43.882h15.15l10.234 23.45c4.17 9.562 8.834 20.25 14.086 32.276H209.12a53016.993 53016.993 0 0 1-10.772-32.276c-2.866-8.595-5.463-16.373-7.824-23.45"/>
        <path fill="#002954" d="M220.824 43.882c3.816 7.077 8.012 14.86 12.64 23.45 5.155 9.562 10.917 20.25 17.404 32.276h-20.875a67573.346 67573.346 0 0 1-14.086-32.276l-10.232-23.45h15.149z"/>
        <path fill="#CAFCD8" d="M.349 99.608h20.847v8.043c0 4.425-3.62 8.043-8.042 8.043H8.392c-4.424 0-8.043-3.618-8.043-8.043v-8.043z"/>
        <path fill="#8FD1C4" d="M56.776 189.444h.001c.103-3.12-.433-22.576 2.162-37.141l44.566-.01c2.569 14.05 2.183 32.708 2.235 37.139l-48.964.012zm46.438-38.663c-1.717-8.442-4.606-14.874-9.461-14.872l-25.259.005c-4.77.002-7.597 6.446-9.271 14.878l43.991-.011z"/>
        <path fill="#4B3621" d="M55.18 190.824l52.158-.013a1.49 1.49 0 0 1 1.485 1.485 1.492 1.492 0 0 1-1.485 1.487l-52.156.01a1.487 1.487 0 0 1-1.486-1.484 1.488 1.488 0 0 1 1.484-1.485M76.314 138.794l9.62-.002a1.73 1.73 0 0 1 1.723 1.723l.001 3.518a1.73 1.73 0 0 1-1.724 1.723l-9.618.002a1.729 1.729 0 0 1-1.723-1.723v-3.518a1.727 1.727 0 0 1 1.721-1.723M76.025 149.38a.973.973 0 1 0-.972-.972.975.975 0 0 0 .972.972M81.128 149.378a.974.974 0 0 0 .97-.972.974.974 0 0 0-.972-.971.973.973 0 0 0-.971.972c0 .534.436.97.973.97M86.228 149.378a.976.976 0 0 0 .972-.973.975.975 0 0 0-.972-.971.973.973 0 0 0-.97.97.974.974 0 0 0 .97.974"/>
        <path fill="#A67C5B" d="M75.514 153.226l11.228-.002v2.915a2.923 2.923 0 0 1-2.914 2.916h-5.4a2.922 2.922 0 0 1-2.914-2.913v-2.916zM79.421 159.055h3.415l-.977 3.563h-1.457zM73.27 170.422l15.967-.005-.51 11.47c-.14 3.15-2.58 5.735-5.733 5.735l-3.095.001c-3.359 0-5.956-2.752-6.11-6.109l-.519-11.092z"/>
        <path fill="#A67C5B" d="M76.925 186.667l8.667-.003c.396 0 .722.324.723.722v.001a.726.726 0 0 1-.723.721l-8.667.002a.724.724 0 0 1-.722-.72c0-.399.323-.723.722-.723M89.085 173.858c2.18-.476 4.312.765 4.776 2.785.467 2.037-.936 4.096-3.131 4.6a4.335 4.335 0 0 1-1.973-.005l-.03.649a6.417 6.417 0 0 1-.116.957 6.17 6.17 0 0 0 2.472-.061c3.114-.715 5.1-3.633 4.439-6.52-.63-2.742-3.42-4.467-6.365-4.024l-.072 1.619zM81.112 162.91c.253 1.05 1.014 1.578 1.013 2.103.001.525-.253 1.053-1.011 1.053-.759 0-1.015-.525-1.014-1.052.001-.526.758-1.054 1.012-2.105M83.326 166.605c.255 1.053 1.014 1.58 1.014 2.106 0 .526-.253 1.052-1.013 1.051-.76.001-1.011-.525-1.011-1.05-.001-.527.758-1.053 1.01-2.107"/>
        <path fill="#4B3621" d="M78.818 173.965c.226-.127.47-.21.724-.25a3.813 3.813 0 0 0-.378.71c-.228.638-.251 1.147-.144 1.813.268 1.271.878 2.208 1.656 3.222.732.915 1.486 1.701 2.31 2.531.253.287.544.57.804.858.071.076.131.168.192.252.041.061.025.045.035-.03.035-.016.006.08-.049.225-1.593.784-3.986-.555-5.406-3.058-1.452-2.56-1.337-5.369.256-6.273m.862-.269a3.385 3.385 0 0 0-.334.8c-.152.61-.133 1.076.032 1.681.389 1.155 1.056 1.97 1.879 2.844.822.768 1.608 1.586 2.511 2.267.321.287.644.575.947.883.028.03.114.132.19.23.742-1.277.564-3.43-.57-5.436-1.211-2.133-3.128-3.42-4.655-3.269"/>
        <path fill="#FFF8E7" d="M221.76 32.08v-3.763h-8.65v-2.392h7.28v-3.6h-7.28v-2.149h8.49v-3.762h-13.514V32.08h13.675zm-16.737-15.666h-6.852l-2.337 9.028h-.08l-2.365-9.028h-7.12V32.08h4.622v-5.643c0-2.364-.404-4.944-.404-4.944h.08l2.929 10.587h3.923l2.902-10.614h.08s-.35 2.607-.35 4.971v5.643h4.972V16.414zM177.967 32.08h5.05V16.414h-5.05V32.08zm-2.526-15.665h-15.287v4.004h5.158V32.08h5.024V20.42h5.105v-4.005zM151.019 32.08v-3.762h-8.653v-2.392h7.255v-3.6h-7.255v-2.149h8.492v-3.762h-13.542V32.08h13.703zm-16.417 0v-3.762h-8.678v-2.392h7.28v-3.6h-7.28v-2.149h8.517v-3.762H120.9V32.08h13.702zm-23.858 0v-5.616h6.556v-3.6h-6.556v-2.687h7.63v-3.762h-12.655V32.08h5.025zm-15.153 0v-5.616h6.555v-3.6H95.59v-2.687h7.603v-3.762H90.566V32.08h5.025zM79.388 19.91c2.204 0 3.332 1.476 3.332 3.6v1.476c0 2.123-1.128 3.6-3.332 3.6-2.203 0-3.304-1.477-3.304-3.6v-1.477c0-2.123 1.1-3.6 3.304-3.6zm0-3.764c-5.346 0-8.436 2.768-8.436 8.115 0 5.32 3.09 8.087 8.436 8.087 5.348 0 8.464-2.768 8.464-8.087 0-5.347-3.116-8.115-8.464-8.115zm-18.027 0c-5.347 0-8.115 2.768-8.115 8.115 0 5.32 2.768 8.087 8.115 8.087 4.782 0 7.549-2.31 7.549-6.61h-4.648c0 1.774-.994 2.848-2.955 2.848-2.042 0-2.928-1.477-2.928-3.6v-1.477c0-2.123.833-3.6 2.982-3.6 1.774 0 2.74 1.154 2.74 2.955h4.809c0-4.38-2.982-6.718-7.55-6.718z"/>
        <g transform="translate(114 343.399)">
            <mask id="b" fill="#fff">
                <use xlink:href="#a"/>
            </mask>
            <path d="M177.969 11.645c0 6.264-39.803 11.342-88.904 11.342-49.1 0-88.904-5.078-88.904-11.342C.161 5.382 39.965.303 89.065.303c49.101 0 88.904 5.079 88.904 11.342" mask="url(#b)"/>
        </g>
        <path fill="#6F4E37" d="M128.763 192.027l3.454-28.113a.452.452 0 0 0-.03-.24.595.595 0 0 0-.166-.2.799.799 0 0 0-.248-.141.994.994 0 0 0-.306-.044h-19.162c-.117 0-.22.016-.307.044a.794.794 0 0 0-.247.14.607.607 0 0 0-.165.202c-.03.07-.04.152-.03.239l3.453 28.113c.042.344.254.647.567.863.314.217.732.348 1.192.348h10.236c.46 0 .878-.131 1.19-.348.316-.216.527-.52.57-.863"/>
        <path fill="#D4A67B" d="M112.152 171.353h19.469l-1.157 11.279h-17.155z"/>
        <path fill="#6C5042" d="M126.253 174.33a3.109 3.109 0 0 0-.802-.202c-.598-.053-1.036.035-1.583.278-1.03.535-1.7 1.285-2.405 2.19-.604.886-1.258 1.75-1.769 2.698-.224.345-.448.692-.693 1.023a5.164 5.164 0 0 1-.188.214c1.31.51 3.317.028 5.038-1.337 1.835-1.454 2.77-3.449 2.402-4.865m-.38-.773c.153.192.267.41.342.643a3.987 3.987 0 0 0-.725-.253c-.634-.119-1.119-.067-1.732.134-1.157.436-1.952 1.148-2.793 2.032-.757.824-1.387 1.651-2.049 2.55-.233.278-.455.595-.69.884-.063.076-.139.146-.208.217-.054.045-.039.03.032.028.02.031-.073.017-.219-.013-.975-1.389-.063-3.84 2.09-5.545 2.202-1.745 4.866-2.049 5.952-.677"/>
        <path fill="#D4A67B" d="M110.41 158.516h22.954a1.04 1.04 0 0 1 1.035 1.036v2.074c0 .57-.466 1.035-1.035 1.035H110.41c-.57 0-1.036-.465-1.036-1.035v-2.074a1.04 1.04 0 0 1 1.036-1.036M129.786 152.468h-1.067l-.535-1.354h-1.215l-.55 1.354h-12.432c-.763 0-1.388.625-1.388 1.388v2.775c0 .763.625 1.388 1.388 1.388h15.8c.762 0 1.386-.625 1.386-1.388v-2.775c0-.763-.624-1.388-1.387-1.388"/>
        <path fill="#6F4E37" d="M157.085 192.027l3.455-28.113a.462.462 0 0 0-.03-.24.607.607 0 0 0-.166-.2.799.799 0 0 0-.248-.141 1 1 0 0 0-.307-.044h-19.16c-.118 0-.22.016-.308.044a.794.794 0 0 0-.247.14.595.595 0 0 0-.165.202c-.03.07-.04.152-.03.239l3.453 28.113c.042.344.254.646.567.863.314.217.732.348 1.192.348h10.235c.46 0 .878-.131 1.191-.348.315-.217.527-.52.568-.863"/>
        <path fill="#D4A67B" d="M140.475 171.353h19.468l-1.156 11.279h-17.155z"/>
        <path fill="#6C5042" d="M154.575 174.33a3.099 3.099 0 0 0-.802-.202c-.598-.053-1.036.035-1.583.278-1.03.535-1.7 1.285-2.405 2.19-.604.886-1.258 1.75-1.769 2.698-.223.344-.448.691-.693 1.023a4.69 4.69 0 0 1-.188.213c1.31.51 3.317.03 5.04-1.336 1.833-1.454 2.766-3.449 2.4-4.865m-.38-.773c.152.192.268.41.342.643a3.987 3.987 0 0 0-.725-.253c-.634-.119-1.119-.067-1.732.134-1.156.436-1.952 1.148-2.793 2.032-.757.824-1.387 1.651-2.049 2.55-.232.278-.455.595-.69.884-.063.076-.139.146-.207.217-.054.045-.04.03.031.027.02.031-.073.018-.219-.012-.975-1.389-.062-3.84 2.09-5.545 2.202-1.745 4.866-2.049 5.952-.677"/>
        <path fill="#D4A67B" d="M138.733 158.516h22.953a1.04 1.04 0 0 1 1.036 1.036v2.074c0 .57-.467 1.035-1.036 1.035h-22.953c-.57 0-1.036-.465-1.036-1.035v-2.074a1.04 1.04 0 0 1 1.036-1.036M158.108 152.468h-1.066l-.536-1.354h-1.214l-.552 1.354h-12.43c-.763 0-1.387.625-1.387 1.388v2.775c0 .763.624 1.388 1.387 1.388h15.798c.764 0 1.387-.625 1.387-1.388v-2.775c0-.763-.623-1.388-1.387-1.388"/>
        <path fill="#6F4E37" d="M178.25 184.056c.367-.061.754-.104 1.14-.156.68-.088 1.358-.201 1.932-.47 1.464-.683 2.317-2.768.705-3.648-.6-.328-1.503-.378-1.82.24.483.79-.517 1.058-.812.758l-.012-.015-.05.261c-.195.975-.626 1.99-1.084 3.03m.563.967c-.43.488.02.822-.213.975-.236.156-.772-.005-1.08-.246a14.065 14.065 0 0 0-.597 1.766c-.309 1.226-.594 2.565-.6 3.55h-6.133c-.008-.985-.293-2.324-.603-3.55-.568-2.248-2.002-4.456-2.41-6.492-.218-1.084-.249-1.818-.264-3.701H179.597a41.522 41.522 0 0 1-.045 1.959 2.28 2.28 0 0 1 .812-.355c1.6-.371 2.916.48 3.238 1.695.185.7.006 1.419-.365 2.027-1.265 2.072-3.848 1.72-4.425 2.372m4.977 6.362h-21.067c.403.567 2.478 1.051 5.398 1.317a.297.297 0 0 0-.012.08c0 .17.14.307.308.307h9.676a.307.307 0 0 0 .298-.387c2.92-.266 4.996-.75 5.4-1.317M201.416 184.056c.368-.061.755-.104 1.14-.156.68-.088 1.36-.201 1.933-.47 1.464-.683 2.317-2.768.705-3.648-.6-.328-1.503-.378-1.82.24.483.79-.517 1.058-.812.758l-.012-.015-.05.261c-.195.975-.626 1.99-1.084 3.03m.563.967c-.43.488.02.822-.213.975-.236.156-.772-.005-1.08-.246a14.065 14.065 0 0 0-.597 1.766c-.309 1.226-.594 2.565-.6 3.55h-6.133c-.008-.985-.293-2.324-.603-3.55-.568-2.248-2.002-4.456-2.41-6.492-.218-1.084-.249-1.818-.264-3.701H202.764a41.522 41.522 0 0 1-.045 1.959 2.28 2.28 0 0 1 .812-.355c1.6-.371 2.916.48 3.238 1.695.185.7.006 1.419-.365 2.027-1.265 2.072-3.848 1.72-4.425 2.372m4.977 6.362H185.89c.403.567 2.478 1.051 5.398 1.317a.297.297 0 0 0-.012.08c0 .17.14.307.308.307h9.676a.307.307 0 0 0 .298-.387c2.92-.266 4.996-.75 5.4-1.317"/>
        <path fill="#A67B5B" d="M198.26 172.837c-.235 1.268-.675 2.54-.958 3.402 2.166-2.706 3.823-5.127 1.774-8.566-.633-1.065-1.508-2.042-2.133-3.125-.878-1.522-.998-2.54-.583-5.38-4.6 7.53 2.994 7.803 1.9 13.67"/>
        <path fill="#A67B5B" d="M194.687 176.406c4.552-5.83-1.73-5.485-.9-12.008-3.246 5.636 3.027 4.778.9 12.008M175.094 172.754c-.236 1.268-.676 2.54-.96 3.402 2.167-2.706 3.824-5.127 1.775-8.566-.633-1.065-1.508-2.042-2.133-3.125-.878-1.522-.998-2.54-.583-5.382-4.6 7.532 2.994 7.804 1.9 13.671"/>
        <path fill="#A67B5B" d="M171.52 176.323c4.552-5.83-1.73-5.485-.9-12.008-3.246 5.636 3.027 4.778.9 12.008"/>
    </g>
</svg>
