<svg xmlns="http://www.w3.org/2000/svg" width="100" height="100" viewBox="0 0 100 100">
    <g fill="none" fill-rule="evenodd">
        <circle cx="50" cy="50" r="50" fill="#AFDFDF"/>
        <g fill-rule="nonzero">
            <path fill="#00A890" d="M67.667 26H53v12h14.667L75 31.538z"/>
            <g fill="#333">
                <path d="M40.444 31.998c0-2.977-2.445-5.399-5.45-5.399-3.007 0-5.451 2.422-5.451 5.399s2.444 5.399 5.45 5.399c3.006 0 5.45-2.422 5.45-5.399zm-5.45 3.6c-2.005 0-3.635-1.615-3.635-3.6s1.63-3.6 3.634-3.6 3.634 1.615 3.634 3.6-1.63 3.6-3.634 3.6z"/>
                <path d="M55.887 40.546c0-1.252-.747-2.326-1.817-2.833V23h-1.817v14.397H30.451c-3.006 0-5.45 2.421-5.45 5.399v12.147c0 1.736 1.426 3.149 3.179 3.149a3.17 3.17 0 0 0 1.123-.213l-1.567 16.467c-.16 1.674.97 3.207 2.573 3.491.194.034.386.051.577.051.69 0 1.354-.22 1.912-.64a3.144 3.144 0 0 0 1.238-2.206l.957-10.056.95 9.97c.136 1.445 1.193 2.628 2.57 2.877a3.189 3.189 0 0 0 2.734-.77 3.094 3.094 0 0 0 1.014-2.61l-1.817-19.06V43.695h11.81v33.293h1.816V43.379c1.07-.507 1.817-1.581 1.817-2.833zm-3.18 1.35h-14.08l.004 13.581 1.822 19.145c.04.422-.118.828-.434 1.114-.185.17-.585.432-1.18.327-.571-.104-1.028-.64-1.089-1.277l-1.845-19.393h-1.824l-1.853 19.48a1.345 1.345 0 0 1-.53.942c-.304.23-.687.319-1.07.25-.668-.118-1.155-.813-1.085-1.55l1.816-19.122V42.795h-1.816v12.148c0 .744-.612 1.35-1.363 1.35a1.358 1.358 0 0 1-1.363-1.35V42.796c0-1.985 1.63-3.6 3.634-3.6h22.256c.752 0 1.363.606 1.363 1.35 0 .744-.611 1.35-1.363 1.35z"/>
            </g>
        </g>
    </g>
</svg>
