<svg xmlns="http://www.w3.org/2000/svg" xmlns:xlink="http://www.w3.org/1999/xlink" width="150%" height="440" viewBox="0 0 636 440">
    <defs>
        <path id="a" d="M345.676 54H.744V.31h344.932z"/>
        <path id="c" d="M53.59 140.124l8.36-8.36V8.527a8.36 8.36 0 0 0-8.36-8.36H8.36A8.36 8.36 0 0 0 0 8.527v123.237a8.36 8.36 0 0 0 8.36 8.36h45.23zM0 .167h61.95v139.957H0V.167z"/>
        <path id="e" d="M287.555.597v335.738H.986V.597z"/>
        <path id="g" d="M.76.969h60.363v43.457H.76V.969z"/>
    </defs>
    <g fill="none" fill-rule="evenodd">
        <g transform="translate(281 386.032)">
            <mask id="b" fill="#fff">
                <use xlink:href="#a"/>
            </mask>
            <path fill="#F2F2F2" d="M345.676 27.156C345.705 41.98 268.514 54 173.263 54 78.013 54 .773 41.98.743 27.156.716 12.33 77.907.31 173.158.31c95.25 0 172.49 12.019 172.519 26.845" mask="url(#b)"/>
        </g>
        <g transform="translate(-30 116.032)">
            <mask id="d" fill="#fff">
                <use xlink:href="#c"/>
            </mask>
            <path d="M53.59 140.124H8.36a8.36 8.36 0 0 1-8.36-8.36V8.527A8.36 8.36 0 0 1 8.36.167h45.23a8.36 8.36 0 0 1 8.36 8.36v123.237a8.36 8.36 0 0 1-8.36 8.36" mask="url(#d)"/>
        </g>
        <path fill="#CCC" d="M152.167 256.156H8.725a8.36 8.36 0 0 1-8.36-8.36V124.56a8.361 8.361 0 0 1 8.36-8.362h143.442a8.361 8.361 0 0 1 8.36 8.362v123.237a8.36 8.36 0 0 1-8.36 8.36"/>
        <path fill="#F1CB28" d="M161.092 256.156H17.65a8.36 8.36 0 0 1-8.36-8.36V124.56a8.361 8.361 0 0 1 8.36-8.362h143.442a8.361 8.361 0 0 1 8.36 8.362v123.237a8.36 8.36 0 0 1-8.36 8.36"/>
        <path fill="#DEDEDE" d="M135.276 186.398c0 25.235-20.486 45.691-45.757 45.691-25.27 0-45.756-20.456-45.756-45.69 0-25.236 20.486-45.692 45.756-45.692 25.271 0 45.757 20.456 45.757 45.691"/>
        <path fill="#CCC" d="M89.52 140.707c-1.156 0-2.298.057-3.433.14 23.665 1.756 42.323 21.47 42.323 45.55s-18.658 43.796-42.323 45.552c1.135.084 2.277.14 3.433.14 25.27 0 45.757-20.456 45.757-45.691 0-25.234-20.486-45.691-45.757-45.691"/>
        <path fill="gray" d="M71.3 186.398c0 3.862-3.136 6.992-7.003 6.992s-7.002-3.13-7.002-6.992 3.135-6.992 7.002-6.992 7.002 3.13 7.002 6.992M114.123 186.398c0 3.862-3.135 6.992-7.002 6.992s-7.002-3.13-7.002-6.992 3.135-6.992 7.002-6.992 7.002 3.13 7.002 6.992"/>
        <path fill="#999" d="M64.297 179.406c-.449 0-.887.046-1.312.127 3.24.614 5.69 3.452 5.69 6.865 0 3.413-2.45 6.251-5.69 6.865.425.081.863.127 1.312.127 3.867 0 7.002-3.13 7.002-6.992s-3.135-6.992-7.002-6.992M107.12 179.406c-.448 0-.886.046-1.311.127 3.239.614 5.689 3.452 5.689 6.865 0 3.413-2.45 6.251-5.69 6.865.426.081.864.127 1.313.127 3.867 0 7.002-3.13 7.002-6.992s-3.135-6.992-7.002-6.992"/>
        <path fill="#00A890" d="M413.812 209.457L350.659 78.928l45.734-23.613L435.12 43.46l62.35-2.703 26.932 129.437a83.646 83.646 0 0 1-2.531 43.466l-29.987 90.038 48.236 88.14-18.296 9.292 7.774-10.876-63.733-83.189-5.527-73.068-62.698 59.6 2.944 107.205-21.245.423 13.259-7.173-21.38-108.253 42.593-76.34z"/>
        <path fill="#FFD1BA" d="M287.257 189.262c4.04.895 6.918 3.417 6.428 5.64-.492 2.223-4.167 3.297-8.209 2.405-4.04-.894-6.918-3.417-6.427-5.638.493-2.226 4.168-3.301 8.208-2.407"/>
        <path fill="#002954" d="M384.005 147.852l-20.988 63.766-77.058-13.405.954-9.423 59.624-1.223 4.12-108.639z"/>
        <path fill="#F2F2F2" d="M347.598 159.628l-.128 3.354 30.95 1.836 1.795-5.45z"/>
        <path fill="#CCC" d="M331.723 196.532a6.065 6.065 0 0 1 4.6-1.08l19.03 3.252a2.833 2.833 0 0 0 3.27-2.316l.05-.293c.218.037.438.069.66.085.084.007 3.397.306 8.21 1.683l4.48-13.61c-5.307-1.551-9.366-2.094-10.938-2.258l.055-.323a2.832 2.832 0 0 0-2.315-3.27l-11.863-2.028-.425 11.194-59.624 1.222-.954 9.424 35.106 6.107 10.658-7.788zM398.211 237.42c3.594 11.704 4.055 25.882 1.315 42.412-2.236 13.497-11.128 28.946-20.737 44.298l4.025 20.38c1.046-1.659 2.098-3.318 3.148-4.972 4.219-6.648 8.486-13.377 12.388-20.112l-.709-25.83 16.645-15.823c3.081-22.426.67-41.292-7.18-56.297l-8.895 15.943z"/>
        <g transform="translate(348 99.032)">
            <mask id="f" fill="#fff">
                <use xlink:href="#e"/>
            </mask>
            <path fill="#E6E6E6" d="M272.852 108.183c-10.397-27.233-25.57-51.435-43.88-69.99-19.84-20.105-43.08-33.085-67.251-37.596l3.19 15.334c19.22 4.868 37.733 15.926 53.889 32.3 16.93 17.156 31.005 39.65 40.7 65.05 21.323 55.85 17.58 114.332-9.537 148.99-30.11 38.484-75.623 52.35-108.502 57.203-44.28 6.54-82.57-.195-101.902-7.948-13.052-5.233-20.642-11.642-23.205-19.589-5.087-15.772 9.572-38.875 23.749-61.218 12.082-19.04 24.574-38.73 27.663-57.37 4.923-29.704.585-53.444-12.893-70.56C37.16 80.295 10.315 78.102 9.18 78.02c-3.913-.285-7.328 2.66-7.628 6.583-.3 3.924 2.644 7.353 6.567 7.667.217.018 21.922 1.95 35.637 19.502 10.8 13.822 14.134 33.754 9.91 59.24-2.613 15.775-14.315 34.216-25.63 52.051-16.677 26.283-32.43 51.107-25.283 73.261C6.703 308.566 17 317.876 34.24 324.79c18.785 7.534 44.624 11.546 71.424 11.546 12.626 0 25.469-.89 37.883-2.724 35.456-5.235 84.652-20.333 117.67-62.534 15.58-19.915 24.61-46.407 26.11-76.61 1.39-27.996-3.615-57.832-14.476-86.284" mask="url(#f)"/>
        </g>
        <path fill="#F2F2F2" d="M356.12 191.303c.06.005 1.776.159 4.514.75l-.51-14.64c-1.683-.26-2.738-.347-2.943-.36-3.914-.286-7.329 2.657-7.628 6.583-.3 3.924 2.643 7.352 6.566 7.667"/>
        <path fill="#DEDEDE" d="M238.106 164.523c-3.811-.65-7.43 1.906-8.08 5.712-.65 3.807 1.912 7.421 5.724 8.073l46.04 7.87 2.356-13.785-46.04-7.87zM253.36 148.791c-3.812-.65-7.43 1.906-8.08 5.712-.65 3.807 1.912 7.421 5.724 8.073l36.648 6.264 2.356-13.784-36.648-6.265z"/>
        <path fill="#F2F2F2" d="M272.617 184.61l9.172 1.568 2.356-13.785-9.47-1.619a342.601 342.601 0 0 0-2.058 13.836M275.38 166.743l11.397 1.948a327.108 327.108 0 0 0 1.942-13.855l-10.567-1.807a327.368 327.368 0 0 0-2.771 13.714"/>
        <path fill="#F2F2F2" d="M355.61 173.523l-19.03-3.253a6.07 6.07 0 0 1-3.982-2.548l-23.373-34.08a12.839 12.839 0 0 0-8.425-5.394l-8.85-1.513c-3.157-.54-9.163 19.187-13.415 44.06-4.252 24.874-5.139 45.477-1.982 46.016l8.85 1.513c3.422.585 6.935-.24 9.738-2.29l33.366-24.38a6.068 6.068 0 0 1 4.601-1.081l19.031 3.253a2.834 2.834 0 0 0 3.27-2.315l2.516-14.718a2.834 2.834 0 0 0-2.315-3.27"/>
        <path fill="#F2F2F2" d="M321.575 151.648l-6.582.675.003.272h-.005c-4.139.073-7.46 1.97-7.424 4.248.041 2.264 3.394 4.04 7.507 3.991l.004.404 13.705.92-7.208-10.51z"/>
        <path fill="#FFD1BA" d="M315.41 159.478c-4.124.377-7.632-1.148-7.843-3.414-.207-2.27 2.964-4.41 7.085-4.792 4.123-.377 7.633 1.15 7.84 3.415.21 2.268-2.96 4.41-7.083 4.79"/>
        <path fill="#00A890" d="M419.874 6.498l15.25 36.959-38.73 11.859-7.887-39.672z"/>
        <g transform="translate(374 -.968)">
            <mask id="h" fill="#fff">
                <use xlink:href="#g"/>
            </mask>
            <path fill="#424242" d="M42.468 13.908l4.604 11.207s2.572-3.201 4.17-.745c2.233 3.434-2.713 3.898-2.713 3.898 3.453 6.748 7.836 11.785 12.594 16.158 0 0-2.787-42.236-15.237-37.423C35.31-12.66 12.246 23.233.76 9.379c2.092 14.738 12.787 18.088 41.707 4.529" mask="url(#h)"/>
        </g>
        <path fill="#F2F2F2" d="M435.123 43.457l-7.465 43.761-31.265-31.903z"/>
        <path fill="#B35730" d="M414.54 53l5.081-1.559 3.013 2.74-1.39 5.265 8.944 12.948-2.53 14.824-10.332-10.543.201-16.235-4.337-3.673z"/>
        <path fill="gray" d="M427.658 87.218l-25.225-12.23 1.067-7.303-7.954-2.907.846-9.462zM427.658 87.218l14.025-24.248-4.984-5.454 4.96-6.858-6.536-7.201z"/>
        <path fill="#002954" d="M505.823 80.897l-79.025 78.1-111.412.888-.75-8.884 98.84-17.697 56.72-77.374z"/>
        <path fill="#FFF" d="M314.823 153.227l-.188-2.226 98.84-17.697 56.721-77.373-51.578 83.825zM505.282 84l-76.1 87.123-36.952-2.049-3.23-6.677 37.257-.297z"/>
        <path fill="#E6E6E6" d="M509.012 96.223l16.53 6.31c.567.217.877.827.72 1.412l-3.8 14.058a1.18 1.18 0 0 1-1.391.845l-7.702-1.683-4.357-20.942z"/>
        <path fill="#E6E6E6" d="M509.012 96.223l2.765 1.056 7.309 21.136-5.717-1.25z"/>
    </g>
</svg>
